<svg xmlns="http://www.w3.org/2000/svg" width="59.857" height="55.041" viewBox="0 0 59.857 55.041">
  <g id="icons" transform="translate(1 1)">
    <path id="message" d="M9.643,1H48.214a9.671,9.671,0,0,1,9.643,9.643V34.75a9.671,9.671,0,0,1-9.643,9.643v7.232a2.411,2.411,0,0,1-4.1,1.687l-8.92-8.92H9.643A9.671,9.671,0,0,1,0,34.75V10.643A9.671,9.671,0,0,1,9.643,1ZM24.107,29.928H38.571a2.411,2.411,0,1,0,0-4.821H24.107a2.411,2.411,0,1,0,0,4.821Zm-4.821-9.643H38.571a2.278,2.278,0,0,0,2.411-2.411,2.278,2.278,0,0,0-2.411-2.411H19.286a2.278,2.278,0,0,0-2.411,2.411A2.278,2.278,0,0,0,19.286,20.286Z" transform="translate(0 -1)" fill="none" stroke="#fff" stroke-width="2"/>
  </g>
</svg>
