<svg id="phonelink_ring-24px" xmlns="http://www.w3.org/2000/svg" width="58" height="58" viewBox="0 0 58 58">
  <path id="Path_25" data-name="Path 25" d="M0,0H58V58H0Z" fill="none"/>
  <path id="Path_26" data-name="Path 26" d="M45.742,17.192l-2.417,2.417a11.084,11.084,0,0,1,0,15.708l2.417,2.417a13.905,13.905,0,0,0,0-20.542Zm-5.075,5.075L38.25,24.683a4.715,4.715,0,0,1,0,5.558l2.417,2.417A7.292,7.292,0,0,0,40.667,22.267ZM31,1H6.833A4.848,4.848,0,0,0,2,5.833v43.5a4.848,4.848,0,0,0,4.833,4.833H31a4.848,4.848,0,0,0,4.833-4.833V5.833A4.848,4.848,0,0,0,31,1Zm0,45.917H6.833V8.25H31Z" transform="translate(2.833 1.417)" fill="none" stroke="#fff" stroke-width="2"/>
</svg>
