<svg xmlns="http://www.w3.org/2000/svg" width="61.582" height="61.549" viewBox="0 0 61.582 61.549">
  <path id="Path_63" data-name="Path 63" d="M33,35.62v24H57v-24Zm-30,24H27v-24H3Zm0-54v24H27v-24ZM43.98,1.69,27,18.64,43.98,35.62,60.96,18.64Z" transform="translate(-1.5 0.429)" fill="none" stroke="#fff" stroke-width="3"/>
</svg>
<svg xmlns="http://www.w3.org/2000/svg" width="20" height="14" viewBox="0 0 20 14">
  <path id="Path_249" data-name="Path 249" d="M16.5,12A2.5,2.5,0,1,0,14,9.5,2.492,2.492,0,0,0,16.5,12ZM9,11A3,3,0,1,0,6,8,2.987,2.987,0,0,0,9,11Zm7.5,3c-1.83,0-5.5.92-5.5,2.75V19H22V16.75C22,14.92,18.33,14,16.5,14ZM9,13c-2.33,0-7,1.17-7,3.5V19H9V16.75a3.941,3.941,0,0,1,2.37-3.47A12.283,12.283,0,0,0,9,13Z" transform="translate(-2 -5)" fill="#5c656b"/>
</svg>
